<svg xmlns="http://www.w3.org/2000/svg" xmlns:xlink="http://www.w3.org/1999/xlink" width="320" zoomAndPan="magnify" viewBox="0 0 240 239.999995" height="320" preserveAspectRatio="xMidYMid meet" version="1.0"><defs><clipPath id="d80c13ce0e"><path d="M 21.550781 21.550781 L 218.800781 21.550781 L 218.800781 218.800781 L 21.550781 218.800781 Z M 21.550781 21.550781 " clip-rule="nonzero"/></clipPath><clipPath id="4d22d7c0f7"><path d="M 40.53125 40.53125 L 199.53125 40.53125 L 199.53125 199.53125 L 40.53125 199.53125 Z M 40.53125 40.53125 " clip-rule="nonzero"/></clipPath></defs><path fill="#f18f01" d="M 120 0 C 53.699219 0 0 53.699219 0 120 C 0 186.300781 53.699219 240 120 240 C 186.300781 240 240 186.300781 240 120 C 240 53.699219 186.300781 0 120 0 Z M 120 216 C 66.960938 216 24 173.039062 24 120 C 24 66.960938 66.960938 24 120 24 C 173.039062 24 216 66.960938 216 120 C 216 173.039062 173.039062 216 120 216 Z M 120 216 " fill-opacity="1" fill-rule="nonzero"/><g clip-path="url(#d80c13ce0e)"><path fill="#f18f01" d="M 119.996094 21.550781 C 65.605469 21.550781 21.550781 65.605469 21.550781 119.996094 C 21.550781 174.382812 65.605469 218.4375 119.996094 218.4375 C 174.382812 218.4375 218.4375 174.382812 218.4375 119.996094 C 218.4375 65.605469 174.382812 21.550781 119.996094 21.550781 Z M 119.996094 198.75 C 76.480469 198.75 41.238281 163.507812 41.238281 119.996094 C 41.238281 76.480469 76.480469 41.238281 119.996094 41.238281 C 163.507812 41.238281 198.75 76.480469 198.75 119.996094 C 198.75 163.507812 163.507812 198.75 119.996094 198.75 Z M 119.996094 198.75 " fill-opacity="1" fill-rule="nonzero"/></g><g clip-path="url(#4d22d7c0f7)"><path fill="#f18f01" d="M 119.996094 40.53125 C 76.089844 40.53125 40.53125 76.089844 40.53125 119.996094 C 40.53125 163.898438 76.089844 199.460938 119.996094 199.460938 C 163.898438 199.460938 199.460938 163.898438 199.460938 119.996094 C 199.460938 76.089844 163.898438 40.53125 119.996094 40.53125 Z M 119.996094 183.566406 C 84.871094 183.566406 56.421875 155.117188 56.421875 119.996094 C 56.421875 84.871094 84.871094 56.421875 119.996094 56.421875 C 155.117188 56.421875 183.566406 84.871094 183.566406 119.996094 C 183.566406 155.117188 155.117188 183.566406 119.996094 183.566406 Z M 119.996094 183.566406 " fill-opacity="1" fill-rule="nonzero"/></g></svg>